<?xml version="1.0" standalone="no"?>
<!DOCTYPE svg PUBLIC "-//W3C//DTD SVG 20010904//EN"
 "http://www.w3.org/TR/2001/REC-SVG-20010904/DTD/svg10.dtd">
<svg version="1.0" xmlns="http://www.w3.org/2000/svg"
 width="1800.000000pt" height="1800.000000pt" viewBox="0 0 1800.000000 1800.000000"
 preserveAspectRatio="xMidYMid meet">
<metadata>
Created by potrace 1.11, written by Peter Selinger 2001-2013
</metadata>
<g transform="translate(0.000000,1800.000000) scale(0.100000,-0.100000)"
fill="#000000" stroke="none">
<path d="M8375 17975 c-1816 -118 -3609 -829 -5040 -1999 -257 -210 -413 -353
-691 -630 -265 -265 -423 -442 -644 -715 -1157 -1440 -1846 -3213 -1959 -5046
-8 -129 -25 -610 -23 -650 0 -5 5 -134 11 -285 40 -1004 226 -1921 581 -2860
611 -1616 1735 -3074 3155 -4095 534 -384 1071 -688 1695 -962 878 -385 1984
-654 2898 -704 425 -23 1323 -11 1602 21 541 64 823 113 1251 221 1622 406
3077 1246 4259 2455 1343 1375 2217 3170 2469 5071 48 362 51 427 51 1078 -1
904 -8 1045 -76 1499 -144 966 -465 1937 -934 2826 -329 623 -728 1201 -1216
1760 -147 168 -584 607 -764 766 -521 461 -1077 851 -1694 1189 -1020 558
-2232 931 -3366 1035 -124 12 -256 25 -295 29 -118 13 -1051 10 -1270 -4z
m-4300 -4975 c497 -46 959 -226 1329 -518 134 -105 247 -214 658 -635 507
-519 609 -645 743 -922 123 -253 185 -532 185 -829 -1 -553 -284 -1106 -752
-1469 -43 -33 -78 -64 -78 -68 0 -4 335 -574 745 -1267 410 -693 748 -1267
751 -1276 6 -15 -72 -16 -848 -16 l-854 0 -703 438 -702 437 -306 598 -306
597 -79 0 -78 0 0 -1035 0 -1035 -707 0 -708 0 -487 453 -488 452 0 3053 0
3052 1288 0 c797 0 1329 -4 1397 -10z"/>
<path d="M1550 9936 l0 -2926 590 0 590 0 0 970 0 970 466 -2 465 -3 493 -965
494 -965 712 -3 c569 -2 711 0 707 10 -2 7 -269 497 -592 1088 -322 591 -587
1079 -588 1083 -1 5 39 35 90 67 412 261 718 624 882 1045 74 189 109 364 117
580 15 405 -101 795 -334 1125 -86 122 -300 336 -419 420 -316 222 -645 348
-1063 406 -112 16 -251 18 -1367 22 l-1243 3 0 -2925z m2370 1844 c171 -20
355 -87 475 -174 244 -177 384 -451 385 -752 0 -117 -11 -188 -47 -299 -32
-100 -53 -141 -116 -233 -122 -177 -312 -307 -546 -374 -74 -21 -94 -22 -708
-25 l-633 -4 0 929 c0 511 3 932 7 935 10 11 1089 8 1183 -3z"/>
<path d="M3020 11585 l0 -45 40 0 40 0 0 45 0 45 -40 0 -40 0 0 -45z"/>
<path d="M3330 11585 l0 -45 45 0 45 0 0 45 0 45 -45 0 -45 0 0 -45z"/>
<path d="M3660 11585 c0 -21 5 -25 30 -25 25 0 30 4 30 25 0 21 -5 25 -30 25
-25 0 -30 -4 -30 -25z"/>
<path d="M3990 11570 c0 -13 7 -20 20 -20 13 0 20 7 20 20 0 13 -7 20 -20 20
-13 0 -20 -7 -20 -20z"/>
<path d="M2890 11430 l0 -60 35 0 35 0 0 60 0 60 -35 0 -35 0 0 -60z"/>
<path d="M3170 11410 l0 -40 40 0 40 0 0 40 0 40 -40 0 -40 0 0 -40z"/>
<path d="M3490 11410 l0 -40 40 0 40 0 0 40 0 40 -40 0 -40 0 0 -40z"/>
<path d="M3820 11410 c0 -27 3 -30 30 -30 27 0 30 3 30 30 0 27 -3 30 -30 30
-27 0 -30 -3 -30 -30z"/>
<path d="M4150 11420 c0 -13 7 -20 20 -20 13 0 20 7 20 20 0 13 -7 20 -20 20
-13 0 -20 -7 -20 -20z"/>
<path d="M3000 11275 l0 -55 60 0 60 0 0 55 0 55 -60 0 -60 0 0 -55z"/>
<path d="M3330 11260 l0 -40 45 0 45 0 0 40 0 40 -45 0 -45 0 0 -40z"/>
<path d="M3650 11260 l0 -40 40 0 40 0 0 40 0 40 -40 0 -40 0 0 -40z"/>
<path d="M3980 11260 c0 -25 4 -30 25 -30 21 0 25 5 25 30 0 25 -4 30 -25 30
-21 0 -25 -5 -25 -30z"/>
<path d="M4310 11260 c0 -13 7 -20 20 -20 13 0 20 7 20 20 0 13 -7 20 -20 20
-13 0 -20 -7 -20 -20z"/>
<path d="M2890 11125 l0 -85 40 0 40 0 0 -55 0 -55 -40 0 -40 0 0 -430 0 -430
325 0 325 0 0 125 0 125 -36 0 -35 0 3 53 c3 51 4 52 36 55 l32 3 0 85 0 84
-45 0 -45 0 0 75 0 75 -80 0 -80 0 0 75 0 75 -75 0 -75 0 0 80 0 80 -75 0 -75
0 0 75 0 75 -50 0 -50 0 0 -85z m230 -296 l0 -60 -52 3 -53 3 -3 44 c-5 65 0
71 58 71 l50 0 0 -61z m158 -151 l-3 -53 -52 -3 -53 -3 0 55 0 56 56 0 55 0
-3 -52z m-328 2 c0 -25 -4 -30 -25 -30 -21 0 -25 5 -25 30 0 25 4 30 25 30 21
0 25 -5 25 -30z m480 -155 l0 -55 -55 0 -55 0 0 55 0 55 55 0 55 0 0 -55z
m-330 0 c0 -20 -5 -25 -25 -25 -20 0 -25 5 -25 25 0 20 5 25 25 25 20 0 25 -5
25 -25z m148 -152 c-3 -32 -44 -46 -54 -19 -10 26 4 46 31 46 23 0 26 -4 23
-27z m152 -153 c0 -25 -4 -30 -25 -30 -21 0 -25 5 -25 30 0 25 4 30 25 30 21
0 25 -5 25 -30z"/>
<path d="M3150 11125 l0 -55 60 0 60 0 0 55 0 55 -60 0 -60 0 0 -55z"/>
<path d="M3500 11095 l0 -45 40 0 40 0 0 45 0 45 -40 0 -40 0 0 -45z"/>
<path d="M3810 11095 l0 -45 45 0 45 0 0 45 0 45 -45 0 -45 0 0 -45z"/>
<path d="M4140 11095 c0 -21 5 -25 30 -25 25 0 30 4 30 25 0 21 -5 25 -30 25
-25 0 -30 -4 -30 -25z"/>
<path d="M4470 11100 c0 -13 7 -20 20 -20 13 0 20 7 20 20 0 13 -7 20 -20 20
-13 0 -20 -7 -20 -20z"/>
<path d="M3300 10970 l0 -60 60 0 60 0 0 60 0 60 -60 0 -60 0 0 -60z"/>
<path d="M3460 10820 l0 -60 40 0 40 0 0 60 0 60 -40 0 -40 0 0 -60z"/>
<path d="M3700 10463 l0 -396 118 6 c201 10 331 48 465 137 66 43 147 118 195
180 68 88 127 242 137 358 4 37 8 77 11 90 l4 22 -465 0 -465 0 0 -397z"/>
<path d="M5975 11705 c79 -188 121 -329 146 -490 18 -119 16 -429 -4 -547 -21
-121 -21 -115 3 -121 14 -3 20 -14 20 -31 0 -22 -4 -26 -29 -26 -27 0 -30 -4
-50 -72 -18 -60 -84 -243 -108 -295 -3 -9 4 -13 21 -13 25 0 26 -3 26 -50 l0
-50 -54 0 c-63 0 -67 -5 -75 -100 l-6 -65 -37 -5 c-47 -6 -98 -71 -98 -125 0
-32 -3 -35 -27 -35 -22 0 -38 -13 -75 -60 -27 -32 -48 -64 -48 -70 0 -6 30
-10 75 -10 l75 0 0 70 0 70 75 0 75 0 0 -75 0 -75 -70 0 -70 0 0 -70 0 -70 70
0 70 0 0 65 0 65 75 0 75 0 0 -75 0 -75 -70 0 -70 0 0 -70 0 -70 70 0 70 0 0
70 0 70 75 0 75 0 0 -75 0 -75 -70 0 -70 0 0 -70 0 -70 75 0 75 0 0 70 0 70
70 0 70 0 0 -75 0 -75 -65 0 -65 0 0 -70 0 -70 70 0 70 0 0 70 0 70 63 0 c78
0 94 14 99 85 3 48 4 50 36 53 36 4 53 25 115 148 30 60 87 191 87 201 0 2
-13 3 -30 3 -28 0 -30 2 -30 41 l0 41 45 -4 44 -3 21 87 c11 47 25 124 31 169
15 110 6 437 -15 554 -51 279 -178 538 -399 814 -84 104 -293 334 -387 426
l-62 60 17 -40z m305 -1035 c0 -13 -7 -20 -20 -20 -13 0 -20 7 -20 20 0 13 7
20 20 20 13 0 20 -7 20 -20z m150 -150 c0 -13 -7 -20 -20 -20 -13 0 -20 7 -20
20 0 13 7 20 20 20 13 0 20 -7 20 -20z m-140 -155 c0 -21 -5 -25 -30 -25 -25
0 -30 4 -30 25 0 21 5 25 30 25 25 0 30 -4 30 -25z m295 0 c0 -11 -8 -21 -17
-23 -14 -3 -18 3 -18 23 0 20 4 26 18 23 9 -2 17 -12 17 -23z m-437 -152 c-3
-36 -5 -38 -40 -41 l-38 -3 0 40 0 41 41 0 40 0 -3 -37z m292 2 c0 -21 -5 -25
-30 -25 -22 0 -30 5 -30 18 0 25 9 32 37 32 18 0 23 -5 23 -25z m298 -2 c-2
-10 -10 -18 -18 -18 -8 0 -16 8 -18 18 -2 12 3 17 18 17 15 0 20 -5 18 -17z
m-438 -153 l0 -40 -40 0 -40 0 0 40 0 40 40 0 40 0 0 -40z m290 0 c0 -25 -4
-30 -25 -30 -21 0 -25 5 -25 30 0 25 4 30 25 30 21 0 25 -5 25 -30z m-430
-150 l0 -50 -50 0 -50 0 0 50 0 50 50 0 50 0 0 -50z m290 0 l0 -40 -40 0 c-39
0 -40 1 -40 33 0 19 3 37 7 40 3 4 21 7 40 7 32 0 33 -1 33 -40z m295 0 c0
-20 -6 -26 -27 -28 -24 -3 -28 0 -28 21 0 30 9 39 35 35 14 -2 20 -10 20 -28z
m-730 -155 l0 -60 -60 0 -60 0 -3 63 -3 63 63 -3 63 -3 0 -60z m295 0 l0 -55
-50 0 -50 0 0 55 0 55 50 0 50 0 0 -55z m290 -6 l0 -40 -37 3 c-36 3 -38 5
-41 41 l-3 37 40 0 41 0 0 -41z m-430 -144 l0 -65 -65 0 -65 0 0 58 c0 32 3
62 7 65 3 4 33 7 65 7 l58 0 0 -65z m290 -5 l0 -50 -50 0 -50 0 0 50 0 50 50
0 50 0 0 -50z m-132 -152 l-3 -63 -65 0 -65 0 -3 63 -3 62 71 0 71 0 -3 -62z
m292 2 l0 -50 -55 0 -55 0 0 50 0 50 55 0 55 0 0 -50z m-142 -152 l-3 -63 -62
-3 -63 -3 0 66 0 65 65 0 66 0 -3 -62z"/>
<path d="M5482 9467 c-23 -23 -42 -48 -42 -55 0 -8 20 -12 60 -12 l60 0 0 55
c0 70 -18 73 -78 12z"/>
<path d="M5600 9305 l0 -55 55 0 55 0 0 55 0 55 -55 0 -55 0 0 -55z"/>
<path d="M5322 9317 c-47 -48 -43 -67 13 -67 l45 0 0 50 c0 60 -13 64 -58 17z"/>
<path d="M5750 9150 l0 -60 55 0 55 0 0 60 0 60 -55 0 -55 0 0 -60z"/>
<path d="M5450 9145 l0 -45 45 0 45 0 0 45 0 45 -45 0 -45 0 0 -45z"/>
<path d="M5106 9157 c-18 -13 -17 -17 15 -75 29 -52 38 -62 62 -62 26 0 27 -2
27 -52 1 -29 7 -64 15 -78 8 -14 14 -19 15 -12 0 8 20 12 65 12 l65 0 0 -65 0
-65 -36 0 c-20 0 -34 -3 -32 -8 31 -72 157 -286 170 -290 11 -3 18 -14 18 -30
0 -15 175 -347 422 -798 l422 -773 496 -322 c272 -178 506 -330 519 -338 23
-14 23 -14 13 4 -5 11 -294 502 -641 1090 -486 824 -637 1071 -654 1075 -16 4
-23 14 -25 35 -7 77 -5 75 -92 75 l-80 0 0 75 0 74 -77 3 -78 3 -3 68 -3 67
-74 0 -75 0 0 65 0 65 -85 0 -85 0 0 60 0 60 -80 0 -80 0 0 75 0 75 -53 0
c-29 0 -61 -6 -71 -13z m422 -464 l-3 -58 -55 0 -55 0 -3 58 -3 57 61 0 61 0
-3 -57z m150 -141 l3 -53 -53 3 -53 3 -3 39 c-5 60 1 68 55 64 l48 -3 3 -53z
m152 -127 l0 -45 -50 0 -50 0 0 45 0 45 50 0 50 0 0 -45z m170 -120 l0 -45
-40 0 -40 0 0 45 0 45 40 0 40 0 0 -45z m-350 -10 c0 -33 -2 -35 -35 -35 -33
0 -35 2 -35 35 0 33 2 35 35 35 33 0 35 -2 35 -35z m500 -106 c0 -39 -1 -40
-32 -37 -26 2 -34 8 -36 26 -6 37 5 52 38 52 28 0 30 -2 30 -41z m-332 -1 c-2
-15 -11 -24 -25 -26 -19 -3 -23 1 -23 22 0 21 5 26 26 26 21 0 25 -4 22 -22z"/>
<path d="M5900 8995 l0 -55 60 0 60 0 0 55 0 55 -60 0 -60 0 0 -55z"/>
<path d="M5610 8995 l0 -45 45 0 45 0 0 45 0 45 -45 0 -45 0 0 -45z"/>
<path d="M5760 8850 l0 -50 50 0 50 0 0 50 0 50 -50 0 -50 0 0 -50z"/>
<path d="M6060 8845 l0 -55 55 0 55 0 0 55 0 55 -55 0 -55 0 0 -55z"/>
<path d="M2890 8715 l0 -65 55 0 55 0 0 65 0 65 -55 0 -55 0 0 -65z"/>
<path d="M5910 8700 l0 -50 50 0 50 0 0 50 0 50 -50 0 -50 0 0 -50z"/>
<path d="M3030 8560 l0 -60 60 0 60 0 0 60 0 60 -60 0 -60 0 0 -60z"/>
<path d="M2891 7668 l0 -813 305 -290 c167 -159 334 -316 369 -349 l65 -58 0
861 0 861 -75 0 -75 0 0 75 0 75 -75 0 -75 0 0 75 0 75 -75 0 -75 0 0 75 0 75
-80 0 -80 0 0 75 0 75 -65 0 -65 0 1 -812z m119 597 l0 -55 -55 0 -55 0 0 55
0 55 55 0 55 0 0 -55z m148 -152 l3 -53 -55 0 -56 0 0 56 0 55 53 -3 52 -3 3
-52z m152 -154 l0 -60 -52 3 -53 3 -3 44 c-5 65 0 71 58 71 l50 0 0 -61z
m-332 -1 c3 -24 0 -28 -23 -28 -27 0 -41 20 -31 46 10 27 51 13 54 -18z m490
-150 l-3 -53 -55 0 -55 0 -3 53 -3 52 61 0 61 0 -3 -52z m-338 -3 c0 -20 -5
-25 -25 -25 -20 0 -25 5 -25 25 0 20 5 25 25 25 20 0 25 -5 25 -25z m488 -152
l3 -53 -55 0 -56 0 0 56 0 55 53 -3 52 -3 3 -52z m-328 2 c0 -21 -5 -25 -30
-25 -25 0 -30 4 -30 25 0 21 5 25 30 25 25 0 30 -4 30 -25z m145 -155 c0 -18
-6 -26 -23 -28 -13 -2 -25 3 -28 12 -10 26 4 48 28 44 17 -2 23 -10 23 -28z
m155 -150 c0 -25 -4 -30 -25 -30 -21 0 -25 5 -25 30 0 25 4 30 25 30 21 0 25
-5 25 -30z"/>
<path d="M3190 8405 l0 -55 55 0 55 0 0 55 0 55 -55 0 -55 0 0 -55z"/>
<path d="M3340 8250 l0 -60 60 0 60 0 0 60 0 60 -60 0 -60 0 0 -60z"/>
<path d="M3490 8095 l0 -55 60 0 60 0 0 55 0 55 -60 0 -60 0 0 -55z"/>
</g>
</svg>
